<svg xmlns="http://www.w3.org/2000/svg" viewBox="0 0 1024 1024" width="1024" height="1024">
  <defs>
    <linearGradient id="leftGrad" gradientUnits="userSpaceOnUse" x1="110" y1="360" x2="450" y2="735">
      <stop offset="0%" stop-color="#D596F7"/>
      <stop offset="45%" stop-color="#6B24DA"/>
      <stop offset="100%" stop-color="#BF3CF9"/>
    </linearGradient>
    <linearGradient id="rightGrad" gradientUnits="userSpaceOnUse" x1="675" y1="740" x2="920" y2="360">
      <stop offset="0%" stop-color="#4B8CF7"/>
      <stop offset="42%" stop-color="#355DD9"/>
      <stop offset="100%" stop-color="#80E1F4"/>
    </linearGradient>
  </defs>
  <g transform="translate(102.4 102.4) scale(0.8)">
    <path d="M 63 361 L 137 426 L 182 471 L 218 510 L 261 562 L 312 630 L 349 684 L 377 730 L 381 732 L 443 731 L 443 727 L 410 664 L 358 577 L 302 493 L 232 397 L 233 396 L 254 419 L 296 470 L 326 509 L 362 560 L 385 595 L 422 657 L 445 702 L 451 718 L 453 672 L 456 653 L 462 633 L 476 604 L 489 589 L 503 580 L 476 579 L 442 570 L 409 551 L 396 540 L 380 523 L 363 499 L 340 457 L 324 419 L 311 381 L 308 368 L 304 363 L 297 360 Z" fill="url(#leftGrad)"/>
    <path d="M 959 361 L 725 360 L 719 363 L 714 371 L 698 421 L 683 456 L 660 499 L 638 528 L 611 553 L 583 569 L 553 578 L 539 580 L 520 580 L 530 586 L 542 598 L 550 609 L 560 631 L 569 667 L 572 717 L 579 699 L 603 653 L 637 596 L 658 564 L 691 517 L 723 475 L 775 412 L 789 397 L 790 398 L 727 484 L 688 541 L 651 599 L 592 702 L 580 726 L 580 731 L 644 731 L 694 654 L 729 605 L 765 558 L 804 511 L 835 477 L 890 422 Z" fill="url(#rightGrad)"/>
    <path d="M 104 419 L 104 555 L 106 557 L 162 570 L 193 579 L 193 520 L 195 517 L 198 517 L 201 520 L 202 526 L 202 582 L 205 583 L 205 600 L 204 601 L 191 595 L 117 570 L 115 571 L 199 610 L 189 620 L 186 633 L 190 645 L 202 654 L 216 655 L 225 651 L 230 646 L 233 640 L 233 625 L 235 624 L 322 666 L 323 665 L 304 640 L 216 605 L 216 541 L 218 539 L 221 540 L 224 545 L 224 587 L 271 601 L 272 599 L 227 542 L 197 508 L 153 463 Z" fill="url(#leftGrad)"/>
    <path d="M 919 419 L 873 460 L 825 509 L 790 549 L 750 600 L 751 601 L 799 587 L 799 544 L 805 539 L 807 541 L 807 605 L 718 641 L 701 663 L 701 665 L 760 637 L 780 629 L 788 624 L 790 625 L 790 640 L 797 650 L 808 655 L 821 654 L 832 646 L 836 637 L 835 623 L 831 616 L 825 611 L 826 609 L 908 571 L 906 570 L 821 600 L 818 599 L 818 584 L 821 581 L 821 522 L 827 516 L 829 518 L 829 579 L 919 556 Z" fill="url(#rightGrad)"/>
  </g>
</svg>
